<svg xmlns="http://www.w3.org/2000/svg" width="749.333" height="341.333" version="1.0" viewBox="0 0 562 256"><g fill="#ffff"><path d="M415 123.5V191h24.8l.4-28.3c.3-27.2.4-28.4 2.6-32.9 2.8-5.6 6.1-8.3 12.6-10 8.9-2.4 18.4 2.3 20.6 10.1.5 2 1 16.5 1 32.3V191h25.1l-.3-35.3-.3-35.3-3-5.9c-3.4-6.7-9.2-11.7-15.8-13.7-2.3-.7-8.2-1.3-13.2-1.3-10.3 0-16.2 1.8-23.8 7.1-2.6 1.9-4.9 3.4-5.2 3.4-.3 0-.5-12.2-.5-27V56h-25v67.5zM71.5 62.6c-15.9 2.3-27.8 10.1-33.6 22.2-1.7 3.7-2.2 6.6-2.3 13.2-.1 11.2 1.8 16.2 8.9 22.9 6.3 6 13.2 9.3 30.9 15.1 19.4 6.2 25 9.6 27.6 16.4 2.2 5.9-1.1 13.6-7.3 16.8-3.3 1.7-5.8 2.2-11.7 2.1-12.6-.1-20.9-5.5-24.7-16.2-1.4-4.1-2.1-5-3.8-4.6-1.1.2-6 1.3-11 2.5-4.9 1.1-10.1 2.3-11.4 2.6-2 .4-2.3.9-1.7 3.7 2 10.2 10.6 21.1 21.2 26.9 11.8 6.4 32.4 8.8 46.8 5.3 13.4-3.2 23.5-10.8 28.4-21.3 2.2-4.9 2.6-7.1 2.6-15.2.1-8.4-.3-10.1-2.6-14.5-5.7-10.8-14.7-16.6-36.5-23.6-19.1-6.1-23-7.8-26.3-11.5-5.2-6-3.2-15.2 4.2-19 4.2-2.2 15.1-3 20.6-1.5 5.6 1.6 11.7 7.1 13.5 12.4 1.1 3.2 1.9 4.1 3.3 3.9 6.4-1 23.4-5.6 23.4-6.3 0-.4-.9-3.3-2.1-6.4C124 78 112.7 68.6 99.2 64.6c-5.4-1.5-22.2-2.8-27.7-2z"/><path d="M265.3 101.1c-3.4 1.2-8 3.7-10.1 5.5-2.2 1.8-4.2 3-4.6 2.7-.3-.3-.6-2.4-.6-4.5V101h-51.6l-5.2 13.7c-12.3 32.3-16.8 43.4-17.5 43.6-.8.2-8.1-19.1-18.4-48.3l-3-8.5-13.7-.3c-7.5-.1-13.6.1-13.6.6 0 .4 8.1 19.6 18 42.6s18 42.5 18 43.4c0 .8-3.9 10.1-8.6 20.6-4.8 10.5-9.3 20.6-10 22.3L143 234h25.8l1.7-4.3c.9-2.3 4.5-11 8-19.2 9-21.3 20.5-48.8 33.5-80 6.2-14.9 11.7-27.4 12.1-28 .5-.5.9 19.2.9 43.8V191h24.8l.4-28.3c.3-26.1.5-28.5 2.4-32.8 2.6-5.5 6.1-8.2 13.1-9.8 9-2.2 15.9.5 19.2 7.2 2 4.1 2.1 5.9 2.1 34V191h25v-34.5c0-32.3-.1-34.8-2.1-39.9-2.4-6.6-8.7-12.6-15.7-15.1-2.6-.9-8.7-1.9-13.7-2.1-7.4-.4-10.1-.1-15.2 1.7zM351.8 100.6c-11.7 2.8-23 10.8-28.5 20.2-8.6 14.7-8.6 35.8 0 50.5 5.6 9.5 17.9 18.1 29.8 20.7 7.2 1.6 22.8.8 29.4-1.4 7-2.4 15.3-8.4 19.8-14.2 3.7-4.8 8.3-15.1 7.2-16.2-.3-.3-5.3-1.1-11.3-1.8-11.9-1.4-10.7-1.8-15.2 5.6-4.5 7.4-15.8 11-25.1 7.9-5.7-2-10-5.9-12.8-11.8-2.2-4.7-2.6-7-2.6-14.1s.4-9.4 2.6-14.1c5.5-11.7 18.4-16.1 30.6-10.5 4.3 2 5.8 3.4 8.4 8.1l3.2 5.6 4-.7c2.2-.3 7.2-.9 11.1-1.3 6.8-.6 7.1-.7 6.8-3.1-.5-3.9-4.8-12.1-8.7-16.7-9.9-11.6-30.8-17.1-48.7-12.7zM525.6 165c-11.5 3.5-13.6 19.5-3.2 25.9 9 5.6 21.6-1.1 21.6-11.5 0-2.5-.7-5.8-1.5-7.4-2.9-5.6-10.6-8.8-16.9-7z"/></g></svg>